<!--?xml version="1.0" encoding="utf-8"?-->
<!-- Generator: Adobe Illustrator 19.1.1, SVG Export Plug-In . SVG Version: 6.00 Build 0)  -->
<svg version="1.1" id="_x31_0" xmlns="http://www.w3.org/2000/svg" xmlns:xlink="http://www.w3.org/1999/xlink" x="0px" y="0px" width="512" height="512" viewBox="0 0 512 512" style="opacity: 1;" xml:space="preserve">
<style type="text/css">
	.st0{fill:#374149;}
</style>
<g>
	<path class="st0" d="M477.74,248.945c3.383-6.75,5.145-14.156,5.145-21.808c0-12.622-4.894-24.63-13.414-33.586
		c2.699-6.144,4.098-12.801,4.098-19.645c0-15.164-7.16-29.461-19.039-38.644c-0.605-14.934-8.034-28.691-20.019-37.43
		c-1.515-17.141-13.074-31.942-29.215-37.703c-6.758-15.184-21.789-25.52-38.633-26.149c-8.851-10.422-21.839-16.262-36.038-15.402
		c-4.539-4.988-10.231-8.98-16.473-11.492c-3.23-1.332-6.821-2.262-10.41-2.73c-8.141-1.278-16.336,0.09-23.742,3.398
		C265.365-2.543,244.295-2.59,229.616,7.648c-5.551-2.449-11.551-3.718-17.692-3.718c-2.168,0-4.16,0.148-5.582,0.39
		c-3.786,0.496-7.371,1.418-10.656,2.734c-6.367,2.562-11.977,6.492-16.508,11.519c-14.191-0.839-27.195,4.996-36.058,15.406
		c-16.899,0.645-31.914,10.981-38.614,26.16C88.381,65.91,76.83,80.703,75.315,97.836c-11.977,8.734-19.418,22.496-20.02,37.426
		c-11.871,9.183-19.035,23.48-19.035,38.644c0,6.844,1.402,13.501,4.098,19.645c-8.519,8.957-13.418,20.965-13.418,33.586
		c0,8.222,2.11,16.347,6.031,23.566c-19.023,27.613-5.817,75.031,1.61,101.691c4.519,16.054,14.941,46.906,18.199,56.481
		c-7.707,34.488-16.36,76.473,13.82,95.535c7.672,4.965,16.942,7.59,26.809,7.59c16.746,0,33.015-7.535,44.676-20.726
		c4.48-5.141,8.086-10.902,10.812-17.207c0.027-0.058,0.062-0.11,0.09-0.168c28.165,15.726,64.078,23.684,107.001,23.684
		c42.094,0,77.398-7.7,105.316-22.829c0.551-0.293,1.145-0.546,1.691-0.847c2.738,6.375,6.391,12.203,10.946,17.422
		C385.553,504.465,401.819,512,418.564,512c9.864,0,19.133-2.625,26.715-7.527c30.242-19.102,21.617-61.106,13.926-95.626
		c3.266-9.594,13.664-40.374,18.226-56.582C485.022,325.015,498.62,276.172,477.74,248.945z M450.28,227.137
		c0,6.874-4.289,12.714-10.351,15.156c-1.547,0.59-3.329,0.961-5.098,1.106h-0.812c-1.774,0-3.398-0.293-5.027-0.809
		c-6.508-2.07-11.238-8.207-11.238-15.453c0-6.653,3.992-12.348,9.687-14.863c1.996-0.887,4.211-1.402,6.578-1.402
		C442.963,210.871,450.28,218.191,450.28,227.137z M428.62,158.16c7.098,1.77,12.347,8.129,12.347,15.746
		c0,8.798-6.949,15.895-15.598,16.266h-0.668c-9.019,0-16.266-7.246-16.266-16.266c0-2.07,0.371-4.066,1.11-5.914
		c1.996-5.027,6.359-8.875,11.754-9.981c1.11-0.226,2.219-0.367,3.402-0.367C426.033,157.644,427.362,157.785,428.62,158.16z
		 M405.701,120.972c0.813,0,1.626,0.07,2.363,0.223c7.84,1.106,13.898,7.906,13.898,16.039c0,2.07-0.367,3.992-1.109,5.839
		c-2.29,0.298-4.504,0.813-6.574,1.551c-4.883,1.778-9.172,4.66-12.5,8.43c-2.141-0.519-4.062-1.398-5.691-2.664
		c1.332-2.66,2.218-5.618,2.586-8.645c0.301-1.476,0.375-2.961,0.375-4.511c0-3.622-0.594-7.094-1.778-10.278
		c-0.293-0.961-0.664-1.918-1.183-2.809C398.752,122.152,402.076,120.972,405.701,120.972z M379.381,99.824
		c0.742-4.656,4.211-8.282,8.652-9.313c0.809-0.222,1.695-0.297,2.586-0.297c6.285,0,11.457,5.102,11.457,11.457
		c0,1.778-0.442,3.477-1.18,4.954c-5.179,0.738-9.836,2.809-13.828,5.844c-0.297-0.074-0.515-0.149-0.742-0.223
		c-0.07-0.074-0.07-0.148-0.145-0.074c-1.035-0.812-2.145-1.554-3.254-2.148c-0.07-0.07-0.07-0.07-0.144-0.07
		c-2.219-2.074-3.551-5.027-3.551-8.282C379.232,101.007,379.303,100.418,379.381,99.824z M358.678,68.476
		c1.848-1.183,3.992-1.922,6.359-1.922c6.286,0,11.461,5.102,11.461,11.457c0,0.594-0.07,1.188-0.148,1.707
		c-3.625,2.285-6.582,5.543-8.653,9.313c-0.218,0.07-0.441,0.148-0.66,0.148c-1.11-6.875-4.511-13.015-9.39-17.523
		C358.092,70.617,358.385,69.586,358.678,68.476z M367.998,120.972c2.586,0,4.95,0.586,7.094,1.696
		c0.738,0.594,1.55,1.113,2.441,1.55c0,0,0,0,0,0.078c0.149,0.148,0.363,0.218,0.59,0.297c0,0,0.148,0.074,0.148,0.144
		c1.996,1.555,3.622,3.626,4.656,5.993c0,0,0,0,0,0.07c0.813,2,1.333,4.14,1.333,6.434c0,0.59,0,1.183-0.074,1.773
		c-0.219,1.63-0.594,3.18-1.258,4.661c-1.105,2.66-2.957,4.953-5.324,6.652c-2.66,1.996-5.988,3.18-9.606,3.18
		c-8.949,0-16.27-7.246-16.27-16.266c0-1.477,0.223-2.883,0.594-4.215C354.166,126.07,360.526,120.972,367.998,120.972z
		 M333.17,51.105c6.062,0,10.946,4.727,11.313,10.723c-0.59,0.664-1.106,1.398-1.477,2.141c-2.145-0.516-4.363-0.742-6.582-0.742
		c-5.028,0-9.754,1.187-13.973,3.328c-0.516-1.258-0.742-2.586-0.742-3.992C321.709,56.206,326.815,51.105,333.17,51.105z
		 M322.303,86.293c1.258-2.363,3.18-4.359,5.473-5.691c2.512-1.626,5.543-2.59,8.649-2.59c0.812,0,1.629,0.074,2.441,0.226
		c1.184,0.145,2.294,0.446,3.328,0.809c1.626,0.672,3.028,1.481,4.364,2.52h0.07c0.738,0.66,1.481,1.328,1.997,2.066
		c2.07,2.293,3.402,5.102,3.843,8.281c0.149,0.742,0.223,1.555,0.223,2.363c0,2.145-0.442,4.219-1.254,6.066
		c-1.774,4.582-5.621,8.129-10.426,9.539c-3.844-8.504-11.465-14.938-20.778-17.156C320.456,90.434,321.193,88.218,322.303,86.293z
		 M316.537,107c5.027,1.179,9.168,4.656,11.238,9.308c0.813,2,1.332,4.215,1.332,6.512c0,0.516,0,1.035-0.078,1.554
		c-0.144,1.402-0.441,2.805-0.961,4.063c-2.289,6.206-8.277,10.648-15.226,10.648c-8.946,0-16.266-7.32-16.266-16.266v-0.297
		c0.148-7.25,5.027-13.309,11.68-15.305c1.406-0.446,2.957-0.664,4.586-0.664C314.1,106.554,315.354,106.703,316.537,107z
		 M297.904,36.538c6.286,0,11.39,5.176,11.39,11.462c0,5.766-4.289,10.57-9.906,11.238c-3.11-2.07-6.586-3.476-10.356-4.214
		c-0.074,0-0.074,0-0.074,0c-1.55-1.922-2.511-4.363-2.511-7.023C286.448,41.714,291.62,36.538,297.904,36.538z M282.529,69.14
		h0.294c4.511,0,8.503,1.852,11.457,4.734c2.965,2.958,4.734,7.024,4.734,11.531c0,8.946-7.246,16.266-16.191,16.266
		c-0.59,0-1.106,0-1.699-0.07h-0.074c-3.254-5.329-8.133-9.614-13.902-12.13c-0.442-1.254-0.59-2.66-0.59-4.066
		C266.556,76.461,273.655,69.293,282.529,69.14z M270.994,117.644v0.294c0,8.945-7.246,16.266-16.262,16.266
		c-8.875,0-16.121-7.168-16.27-16.043v-0.222c0-1.329,0.149-2.665,0.52-3.844c1.554-6.73,7.39-11.828,14.414-12.344
		c0.446-0.078,0.891-0.078,1.336-0.078c0.59,0,1.106,0,1.699,0.078c0,0,0,0,0.07,0c6.801,0.738,12.348,5.614,13.902,12.121
		C270.846,115.054,270.994,116.308,270.994,117.644z M254.732,32.324c6.282,0,11.458,5.102,11.458,11.386
		c0,6.286-5.176,11.458-11.458,11.458c-6.285,0-11.386-5.172-11.386-11.458C243.346,37.426,248.448,32.324,254.732,32.324z
		 M227.303,69.14c8.867,0.153,15.965,7.321,15.965,16.266c0,1.332-0.145,2.664-0.442,3.848c-5.984,2.512-11.09,6.875-14.492,12.348
		c-0.442,0.07-0.886,0.07-1.328,0.07c-8.946,0-16.266-7.32-16.266-16.266c0-4.507,1.848-8.574,4.805-11.531
		c2.886-2.882,7.023-4.734,11.461-4.734H227.303z M211.924,36.538c6.282,0,11.458,5.176,11.458,11.462
		c0,2.66-0.961,5.102-2.512,7.023c-3.774,0.664-7.324,2.145-10.426,4.214c-5.618-0.668-9.906-5.472-9.906-11.238
		C200.537,41.714,205.639,36.538,211.924,36.538z M196.616,106.554c1.703,0,3.328,0.293,4.882,0.738c0,0,0,0,0.074,0
		c6.578,2.07,11.313,8.207,11.313,15.527c0,0.074,0,0.074,0,0.145c-0.074,8.874-7.325,16.121-16.27,16.121
		c-6.801,0-12.641-4.214-15.004-10.207c-0.664-1.328-1.035-2.808-1.188-4.363c-0.07-0.586-0.07-1.106-0.07-1.695
		c0-2.297,0.445-4.367,1.258-6.359c2.066-4.883,6.434-8.504,11.754-9.539C194.4,106.703,195.51,106.554,196.616,106.554z
		 M165.346,61.828c0.371-5.996,5.25-10.723,11.312-10.723c6.356,0,11.458,5.102,11.458,11.458c0,1.351-0.297,2.695-0.711,3.914
		c-0.023,0.051-0.027,0.098-0.05,0.149c-4.207-2.215-8.934-3.398-13.95-3.398c-2.218,0-4.438,0.226-6.582,0.742
		c-0.434,0.07-0.934,0.148-1.37,0.359c-0.012,0.004-0.02,0.004-0.032,0.004c-0.078-0.59-0.148-1.18-0.148-1.77
		C165.272,62.343,165.272,62.046,165.346,61.828z M157.361,91.914c0.442-3.179,1.774-5.988,3.844-8.281
		c0.519-0.738,1.183-1.406,1.996-1.997c1.328-1.034,2.813-1.918,4.434-2.59c1.039-0.363,2.145-0.664,3.328-0.809
		c0.817-0.152,1.625-0.226,2.442-0.226c3.176,0,6.141,0.965,8.649,2.59c2.297,1.332,4.214,3.328,5.472,5.691
		c1.106,1.926,1.844,4.07,2.07,6.363c-9.39,2.141-17.156,8.574-21.07,17.074c-4.656-1.406-8.351-4.879-10.203-9.387
		c-0.738-1.847-1.183-3.922-1.183-6.066C157.139,93.469,157.209,92.656,157.361,91.914z M166.014,137.234
		c0,9.019-7.325,16.266-16.27,16.266c-6.875,0-12.79-4.286-15.153-10.348c-0.668-1.629-1.039-3.406-1.039-5.254
		c-0.074-0.219-0.074-0.442-0.074-0.664c0-2.07,0.371-4.066,1.113-5.84c2.363-6.062,8.278-10.422,15.153-10.422
		c7.098,0,13.164,4.582,15.378,11.012C165.717,133.613,166.014,135.386,166.014,137.234z M144.791,66.554
		c2.367,0,4.586,0.738,6.36,1.922c0.293,1.11,0.594,2.141,1.035,3.18c-4.883,4.508-8.282,10.648-9.387,17.523
		c-0.222,0-0.446-0.078-0.668-0.148c-2.07-3.77-5.098-7.028-8.652-9.313c-0.07-0.519-0.145-1.114-0.145-1.707
		C133.334,71.656,138.506,66.554,144.791,66.554z M119.213,90.214c0.886,0,1.77,0.074,2.59,0.297
		c4.504,1.031,7.906,4.726,8.649,9.387c0.07,0.59,0.144,1.179,0.144,1.773c0,5.032-3.25,9.317-7.836,10.798
		c-3.992-3.035-8.648-5.106-13.828-5.844c-0.738-1.477-1.183-3.176-1.183-4.954C107.748,95.316,112.928,90.214,119.213,90.214z
		 M101.764,121.195c0.738-0.153,1.554-0.223,2.367-0.223c5.469,0,10.274,2.661,13.23,6.801c0.817,1.106,1.477,2.29,1.922,3.622
		c-0.367,1.926-0.59,3.843-0.59,5.84c0,1.183,0.074,2.293,0.223,3.402c0.07,0.886,0.222,1.699,0.367,2.515
		c-1.848,4.879-6.063,8.574-11.238,9.902c-3.176-3.547-7.242-6.359-11.828-8.129c-2.29-0.89-4.731-1.481-7.242-1.774
		c-0.738-1.847-1.114-3.847-1.114-5.918C87.861,129.102,93.928,122.301,101.764,121.195z M81.209,158.16
		c1.258-0.375,2.511-0.516,3.918-0.516c1.926,0,3.774,0.367,5.469,0.958c4.442,1.554,7.989,5.023,9.691,9.39
		c0.738,1.847,1.106,3.844,1.106,5.914c0,8.501-6.504,15.454-14.785,16.192c-0.516,0.074-0.961,0.074-1.481,0.074
		c-8.945,0-16.262-7.246-16.262-16.266C68.865,166.289,74.112,159.93,81.209,158.16z M75.811,210.871
		c3.179,0,6.14,0.961,8.652,2.515c4.582,2.883,7.618,7.981,7.618,13.75c0,6.355-3.699,11.976-9.094,14.562
		c-1.777,0.89-3.847,1.48-5.918,1.629c-0.442,0.07-0.813,0.07-1.258,0.07c-2.29,0-4.36-0.438-6.286-1.254
		c-5.84-2.511-9.98-8.281-9.98-15.007C59.545,218.191,66.865,210.871,75.811,210.871z M93.408,479.394
		c-3.551,0-6.726-0.812-9.242-2.438c-12.641-7.984-2.809-45.914,2.442-69.945c0,0-15.383-44.578-20.629-63.43
		c-6.207-22.179-19.738-72.082,0-78.89c0.297-0.07,0.59-0.145,0.816-0.218c1.848,0.519,3.77,0.812,5.688,0.886
		c4.664,2.59,8.062,9.242,10.133,14.121c-0.074,6.066-0.074,12.645-0.074,19.742c0,26.711,0.09,70.442,18.676,108.989
		c-1.715,6.87-8.738,36.851-1.906,41.398c7.058,4.695,11.687-6.203,15.992-13.086c0.574-0.918,0.851-1.934,0.992-2.961
		c0.062-0.25,0.141-0.477,0.199-0.734c1.817,2.297,3.66,4.586,5.672,6.789C123.869,467.492,106.643,479.394,93.408,479.394z
		 M368.588,429.566c-22.551,21.879-57.895,35.41-112.602,35.41c-54.707,0-90.051-13.531-112.598-35.41
		c-7.617-7.317-13.679-15.602-18.562-24.547c-12.266-22.106-17.445-48.574-19.214-76.742c-0.668-9.535-0.891-19.227-0.891-29.055
		c0-8.871,0-16.781,0.07-24.027c0-8.5,0.078-16.047,0.227-22.992c3.714-4.383,6.339-9.622,7.835-15.305
		c0.063,0.195,0.078,0.402,0.176,0.59c0.961,1.848,3.18,2.512,5.027,1.551l0.297-0.145c0,0,1.77-0.961,5.028-2.66
		c1.55-0.821,3.542-1.852,5.766-3.035c2.218-1.106,4.656-2.59,7.613-3.625c2.809-1.18,5.914-2.438,9.168-3.766
		c3.18-1.554,6.875-2.144,10.5-3.332c1.774-0.437,3.618-1.109,5.543-1.472c1.922-0.301,3.844-0.594,5.766-0.891
		c1.926-0.297,3.918-0.738,5.84-0.89l5.918-0.145c3.918-0.37,7.762,0.52,11.531,0.813c1.922,0.222,3.626,0.89,5.473,1.328
		c1.778,0.446,3.547,0.821,5.18,1.629c1.621,0.668,3.25,1.336,4.805,1.922c1.476,0.886,2.882,1.699,4.285,2.519
		c2.809,1.551,5.176,3.543,7.394,5.32c2.066,1.844,3.914,3.696,5.394,5.395c1.555,1.699,2.661,3.328,3.622,4.586
		c0.89,1.402,1.554,2.438,1.851,2.957c0.367,0.817,0.59,1.184,0.59,1.184l0.218,0.367c0.078,0.074,0.152,0.226,0.152,0.297
		c2.219,3.547,6.805,4.656,10.352,2.442c3.473-2.149,4.582-6.73,2.438-10.282c0,0-0.293-0.515-0.887-1.477
		c-0.738-1.109-1.699-2.437-2.957-4.14c-1.332-1.551-2.882-3.547-4.957-5.618c-1.918-2.07-4.359-4.214-7.094-6.359
		c-2.883-2.07-5.993-4.359-9.535-6.137c-1.852-0.883-3.703-1.848-5.547-2.73c-2-0.742-3.992-1.41-6.062-2.149
		c-2.07-0.812-4.215-1.183-6.434-1.625c-2.215-0.367-4.359-1.039-6.653-1.187c-4.437-0.145-9.023-0.809-13.531-0.215l-6.726,0.59
		c-2.218,0.294-4.363,0.891-6.508,1.254c-2.144,0.515-4.21,0.961-6.359,1.406c-2.066,0.515-3.988,1.332-5.91,1.996
		c-3.844,1.402-7.766,2.363-11.09,4.141c-3.328,1.629-6.582,3.105-9.465,4.507c-3.035,1.258-5.473,2.958-7.762,4.29
		c-2.222,1.332-4.218,2.511-5.844,3.473c-3.179,1.926-5.023,3.034-5.023,3.034c-0.218,0.133-0.379,0.313-0.543,0.489
		c-0.058,0.027-0.113,0.05-0.183,0.078c0.316-1.972,0.546-3.976,0.546-6.038c0-7.122-2.031-13.84-5.546-19.73
		c-0.422-0.754-0.782-1.528-1.254-2.266c0-0.007,0-0.034,0-0.034c9.906-7.024,16.118-18.559,16.118-31.2
		c0-1.179-0.07-2.293-0.149-3.398c1.258-0.742,2.363-1.476,3.551-2.367c6.504,4.875,14.488,7.539,22.77,7.539
		c13.011,0,25.137-6.726,32.086-17.374c4.66,1.922,9.614,2.957,14.786,2.957c12.25,0,23.48-5.856,30.546-15.25
		c0.188-0.246,0.406-0.465,0.59-0.71c7.094,6.941,16.777,11.082,26.98,11.082c10.039,0,19.555-4.046,26.625-10.801
		c0.114-0.106,0.25-0.179,0.364-0.285c7.019,9.832,18.55,15.965,31.121,15.965c7.57,0,14.844-2.199,20.961-6.223
		c0.035-0.023,0.074-0.038,0.11-0.062c6.434,12.348,19.446,20.703,34.086,20.703c5.622,0,11.153-1.312,16.168-3.703
		c0.723-0.316,1.454-0.602,2.161-0.957c-0.004,0.942-0.07,1.875-0.07,2.886c0,12.641,6.21,24.246,16.191,31.274
		c-4.434,6.36-6.875,13.973-6.875,21.958c0,0.77,0.133,1.469,0.184,2.21c0.004,0.981-0.039,1.934-0.219,2.84
		c-0.71-0.426-2.062-1.242-4.324-2.613c-1.629-0.962-3.625-2.141-5.84-3.473c-2.297-1.332-4.734-3.031-7.77-4.29
		c-2.882-1.402-6.133-2.878-9.461-4.507c-3.332-1.778-7.246-2.738-11.09-4.141c-1.922-0.664-3.848-1.481-5.914-1.996
		c-2.145-0.446-4.218-0.891-6.363-1.406c-2.141-0.363-4.285-0.961-6.5-1.254l-6.73-0.59c-4.508-0.594-9.094,0.07-13.531,0.215
		c-2.289,0.148-4.434,0.82-6.653,1.187c-2.218,0.442-4.363,0.813-6.43,1.625c-2.074,0.738-4.066,1.406-6.062,2.149
		c-1.851,0.882-3.699,1.847-5.546,2.73c-3.551,1.778-6.653,4.066-9.539,6.137c-2.734,2.145-5.172,4.289-7.094,6.359
		c-2.07,2.07-3.622,4.066-4.958,5.618c-1.254,1.703-2.214,3.031-2.953,4.14c-0.594,0.962-0.89,1.477-0.89,1.477
		c-0.07,0.149-0.149,0.226-0.149,0.375c-1.996,3.621-0.664,8.129,2.957,10.129c3.626,1.992,8.137,0.664,10.129-2.961l0.223-0.367
		c0,0,0.222-0.367,0.59-1.184c0.297-0.519,0.965-1.554,1.852-2.957c0.961-1.258,2.07-2.886,3.625-4.586
		c1.476-1.699,3.328-3.551,5.394-5.395c2.214-1.777,4.582-3.769,7.394-5.32c1.406-0.82,2.805-1.633,4.286-2.519
		c1.554-0.586,3.179-1.254,4.804-1.922c1.626-0.808,3.402-1.183,5.18-1.629c1.848-0.438,3.551-1.106,5.469-1.328
		c3.77-0.293,7.614-1.183,11.531-0.813l5.918,0.145c1.922,0.152,3.918,0.594,5.839,0.89c1.922,0.297,3.844,0.59,5.77,0.891
		c1.918,0.363,3.766,1.035,5.543,1.472c3.621,1.188,7.316,1.778,10.496,3.332c3.258,1.329,6.359,2.586,9.168,3.766
		c2.957,1.034,5.394,2.519,7.618,3.625c2.214,1.183,4.21,2.214,5.762,3.035c3.258,1.699,5.102,2.66,5.102,2.66l0.222,0.145
		c1.492,0.75,3.183,0.374,4.266-0.715c0.114-0.074,0.23-0.121,0.34-0.203c1.847,6.262,5.242,11.871,9.742,16.371
		c0.144,6.359,0.218,13.16,0.218,20.774c0.074,7.246,0.074,15.16,0.074,23.957c0,9.828-0.223,19.52-0.887,29.055
		c-1.773,28.167-6.949,54.636-19.222,76.742C382.268,413.965,376.201,422.25,368.588,429.566z M445.991,343.582
		c-5.246,18.852-20.622,63.43-20.622,63.43c5.25,24.031,15.078,61.961,2.434,69.945c-2.508,1.626-5.691,2.438-9.238,2.438
		c-13.234,0-30.457-11.902-28.758-39.778c2.027-2.222,3.89-4.527,5.719-6.843c-0.051,1.496,0.308,3.004,1.14,4.328
		c4.305,6.886,8.93,17.781,15.993,13.086c6.98-4.644-0.497-35.805-2-41.77c18.687-38.598,18.777-82.438,18.777-109.195
		c0-7.098,0-13.606-0.078-19.668c2.07-5.172,5.843-12.274,10.867-14.562c1.258-0.078,2.445-0.371,3.625-0.738
		c0.664,0.07,1.406,0.219,2.141,0.438C465.736,271.5,452.205,321.402,445.991,343.582z" style="fill: rgb(75, 75, 75);"></path>
	<path class="st0" d="M273.361,193.722c0-9.614-7.762-17.453-17.374-17.453c-9.614,0-17.375,7.839-17.375,17.453
		c0,9.606,7.762,17.371,17.375,17.371C265.6,211.094,273.361,203.328,273.361,193.722z M246.006,193.722
		c0-5.547,4.438-10.058,9.981-10.058c5.546,0,9.98,4.511,9.98,10.058c0,5.543-4.434,9.977-9.98,9.977
		C250.444,203.699,246.006,199.266,246.006,193.722z" style="fill: rgb(75, 75, 75);"></path>
	<path class="st0" d="M210.224,339.278l-0.828,3.332c-0.074,0.598-0.191,1.175-0.301,1.742c-0.113,0.559-0.218,1.11-0.285,1.633
		c-0.332,2.047-0.629,4.535-0.305,7.438c0.129,1.094,0.402,2.742,1.25,4.446c0.883,1.77,2.626,3.351,4.446,4.039
		c1.934,0.722,3.645,0.703,5.125,0.629c1.203-0.129,2.27-0.402,3.301-0.668l0.738-0.172c0.691-0.199,1.309-0.594,1.742-1.11
		l0.91-1.054c0.633-0.684,1.23-1.34,1.789-1.871h7.535c0.289,0.074,0.578,0.078,0.973,0.074c6.046,0.144,12.969,1.82,18.847,3.32
		c0.145,0.078,0.278,0.11,0.434,0.145l0.262,0.129c0.254,0.078,0.614,0.168,0.977,0.114c0.418,0.05,0.859-0.008,1.234-0.161
		c0.184,0,0.313-0.042,0.367-0.074l0.215-0.031c6.644-2.161,12.374-3.317,17.16-3.442c0.25,0,0.527,0,0.738-0.074h7.641
		c0.566,0.543,1.179,1.215,1.824,1.918l0.871,1.007c0.449,0.539,1.086,0.926,1.839,1.118l0.637,0.164
		c1.035,0.266,2.098,0.539,3.34,0.672c0.375,0.015,0.758,0.035,1.16,0.035c1.176,0,2.493-0.129,3.93-0.668
		c1.813-0.688,3.559-2.27,4.446-4.039c0.852-1.703,1.122-3.352,1.25-4.45c0.324-2.882,0.046-5.277-0.294-7.418
		c-0.074-0.539-0.179-1.078-0.289-1.625c-0.114-0.574-0.23-1.164-0.32-1.848l-0.813-3.25c-0.75-2.981-1.965-5.29-3.714-7.035
		c-1.813-1.962-4.364-3.321-7.188-3.832c-2.778-0.508-5.613-0.422-8.645,0.258l-7.054-65.223c-0.086-0.906-0.527-1.726-1.242-2.312
		c-0.703-0.57-1.578-0.836-2.438-0.75c-0.93,0.043-1.808,0.477-2.43,1.195c-0.609,0.707-0.906,1.626-0.816,2.508l5.25,65.906
		c0.164,1.274,0.829,2.383,1.786,2.992c0.015,0.114,0.039,0.223,0.094,0.317c0.203,0.606,0.614,1.09,1.164,1.363
		c0.547,0.274,1.18,0.316,1.711,0.148l0.226-0.034c4.074-1.387,8.129-1.707,11.149-0.871c3.918,0.957,5.297,4.25,5.762,6.82
		l0.438,3.054c0.031,0.477,0.086,0.965,0.14,1.469c0.059,0.516,0.114,1.039,0.153,1.559c0.144,1.949,0.07,3.882-0.215,5.453
		c-0.156,0.93-0.484,1.519-0.558,1.652c-0.094,0.137-0.137,0.18-0.141,0.18l-0.242,0.066c-0.206,0.066-1.09,0.012-2.343-0.386
		c-0.707-0.778-1.426-1.562-2.34-2.477c-1.047-1.047-2.711-2.531-5.07-3.344c-2.043-0.707-4.422-0.789-6.496-0.246
		c-1.551,0.308-2.898,0.832-4.019,1.32c-7.02,0.336-12.942,1.957-17.825,3.519c-6.602-1.75-12.656-3.21-19.554-3.519
		c-1.355-0.621-2.641-1.043-3.985-1.313c-2.117-0.55-4.5-0.469-6.538,0.238c-2.352,0.813-4.02,2.297-5.07,3.344
		c-0.918,0.914-1.633,1.699-2.336,2.477c-1.258,0.398-2.153,0.453-2.398,0.374l-0.184-0.046c-0.004-0.004-0.043-0.035-0.129-0.164
		c-0.102-0.157-0.422-0.738-0.582-1.68c-0.282-1.558-0.356-3.492-0.211-5.453c0.043-0.547,0.098-1.09,0.156-1.629
		c0.055-0.473,0.106-0.938,0.137-1.348l0.442-3.078c0.465-2.594,1.843-5.882,5.781-6.851c2.996-0.824,7.055-0.508,11.126,0.879
		l0.266,0.034c1.106,0.329,2.293-0.242,2.839-1.441c0.039-0.129,0.063-0.23,0.082-0.325c1.043-0.706,1.718-1.89,1.797-3.156
		l5.25-65.789c0.09-0.894-0.184-1.766-0.754-2.465c-0.594-0.719-1.442-1.168-2.378-1.254c-0.895-0.086-1.832,0.195-2.555,0.782
		c-0.71,0.586-1.152,1.394-1.242,2.274l-6.359,58.871l-0.707,6.355c-3.023-0.672-5.859-0.758-8.633-0.254
		c-2.82,0.511-5.374,1.87-7.168,3.812C212.189,333.988,210.971,336.297,210.224,339.278z" style="fill: rgb(75, 75, 75);"></path>
	<path class="st0" d="M297.944,390.199h-0.07c-0.973,0.207-4.379-1.531-5.906-2.363c-4.449-2.157-10.008-4.938-17.375-5.699
		c-8.969-1.043-15.222,1.945-18.629,4.238c-3.402-2.294-9.59-5.282-18.554-4.238c-7.367,0.762-13,3.542-17.516,5.77
		c-3.195,1.664-5.14,2.43-5.836,2.293c-2.64-0.418-5.214,1.11-6.117,3.75c-0.766,2.645,0.414,5.352,2.848,6.606
		c2.086,0.973,4.797,2.434,6.465,3.891c0.14,3.406,1.32,6.394,3.613,8.968c3.894,4.098,10.496,6.254,19.602,6.254
		c0.489,0,0.973-0.074,1.457-0.074c9.942-0.207,12.371-0.133,12.719-0.066c0.973,0.211,1.949,0.141,2.434,0
		c0.625-0.066,3.058-0.141,12.996,0.066c9.801,0.282,16.886-1.871,21.058-6.254c2.226-2.5,3.477-5.559,3.547-8.894
		c0.691-0.626,2.43-2.016,6.531-3.962c2.363-1.183,3.543-3.89,2.782-6.602C303.088,391.309,300.514,389.781,297.944,390.199z
		 M270.28,410.492c-4.375-0.07-7.711-0.211-10.145-0.211c-1.805,0-3.129,0.074-4.172,0.141c-2.434-0.207-6.602-0.066-14.246,0.07
		c-7.36,0.176-11.024-1.102-12.891-2.336c-0.336-0.246-0.675-0.492-0.914-0.742c2.094-1.667,6.176-4.359,10.398-4.359
		c2.922,0,4.726,1.047,7.09,2.293c0.07,0.07,0.137,0.07,0.207,0.141c2.711,1.458,5.77,3.195,10.355,3.195
		c4.516,0,7.578-1.664,10.219-3.125c0.066,0,0.066-0.07,0.137-0.07c2.438-1.32,4.378-2.434,7.371-2.434
		c4.05,0,7.992,2.524,10.094,4.141c0.094,0.078,0.234,0.18,0.312,0.25C282.627,408.836,278.94,410.699,270.28,410.492z
		 M286.408,399.996c-3.199-2.082-7.718-4.375-12.718-4.375c-4.934,0-8.274,1.875-10.914,3.402c-2.297,1.25-4.102,2.293-6.813,2.293
		c-2.64,0-4.515-1.042-6.808-2.293c-2.641-1.527-5.977-3.402-10.844-3.402c-5.004,0-9.59,2.293-12.789,4.45
		c-0.645-1-1.567-1.894-2.582-2.778c-0.164-0.172-0.328-0.344-0.485-0.519c0.535-0.199,1.07-0.398,1.61-0.668
		c3.961-2.016,8.481-4.238,14.317-4.934c9.867-1.043,14.523,4.374,14.734,4.656c0.625,0.902,1.738,1.39,2.847,1.39
		c1.043,0.066,2.157-0.488,2.918-1.39c0.141-0.207,4.867-5.699,14.668-4.656c5.91,0.695,10.355,2.918,14.386,4.934
		c0.394,0.226,0.836,0.394,1.25,0.566c0.082,0.058,0.148,0.094,0.242,0.164C288.19,397.797,287.092,398.828,286.408,399.996z" style="fill: rgb(75, 75, 75);"></path>
	<path class="st0" d="M380.576,265.375h-72.402c-3.215,0-6.156,1.804-7.61,4.671l-7.707,15.196c-1.05,2.351-0.476,5.14,1.336,6.476
		c0.602,0.45,1.348,0.691,2.149,0.691c1.484,0,2.785-0.874,3.469-2.328l2.867-5.664h21.508l1.382,0.394
		c2.535,0.653,5.742,0.997,9.278,0.997c9.43,0,20.813-2.145,31.222-5.875c3.93-1.356,7.906-3.051,11.828-5.039h2.68
		c2.222,0,4.031-2.149,4.031-4.793C384.608,267.449,382.834,265.375,380.576,265.375z M334.846,277.469
		c-4.926,0-7.191-0.695-7.992-1.016l-1.035-0.32c0.031-0.75,0.109-1.547,0.238-2.418h16.41l15.226,0.149
		C349.697,276.137,341.444,277.469,334.846,277.469z" style="fill: rgb(75, 75, 75);"></path>
	<path class="st0" d="M212.155,290.07c0.695,1.465,1.988,2.339,3.476,2.339c0.801,0,1.547-0.242,2.153-0.687
		c1.812-1.34,2.378-4.129,1.316-6.512l-7.687-15.164c-1.458-2.867-4.398-4.671-7.614-4.671h-72.402
		c-2.262,0-4.031,2.074-4.031,4.726c0,2.644,1.809,4.793,4.031,4.793h2.68c3.922,1.988,7.898,3.683,11.816,5.035
		c10.426,3.734,21.809,5.879,31.234,5.879c3.531,0,6.738-0.344,9.294-1l1.37-0.391h21.508L212.155,290.07z M185.123,276.453
		l-0.054,0.02c-0.746,0.301-3.015,0.996-7.942,0.996c-6.754,0-15.246-1.379-23.418-3.754h32.207
		c0.129,0.871,0.203,1.668,0.234,2.418L185.123,276.453z" style="fill: rgb(75, 75, 75);"></path>
</g>
</svg>
